<?xml version="1.0" encoding="utf-8"?>
<!-- Generator: Adobe Illustrator 19.2.0, SVG Export Plug-In . SVG Version: 6.00 Build 0)  -->
<svg version="1.1" id="_1-Facebook" xmlns="http://www.w3.org/2000/svg" xmlns:xlink="http://www.w3.org/1999/xlink" x="0px"
	 y="0px" viewBox="0 0 48 48" style="enable-background:new 0 0 48 48;" xml:space="preserve">
<style type="text/css">
	.st0{fill:#F1F2F2;}
	.st1{fill:#49AAEE;}
</style>
<title></title>
<g id="_Group_">
	<path class="st0" d="M35,23l-2,7h-6v16l0.1,0.8C26.1,46.9,25,47,24,47c-1.7,0-3.4-0.2-5-0.6V30h-6v-7h6V11c0-1.6,1.3-3,2.9-3
		c0,0,0.1,0,0.1,0h12v7h-7v8H35z"/>
	<path class="st1" d="M24,1c12.7,0,23,10.3,23,23c0,11.5-8.5,21.2-19.9,22.8L27,46V30h6l2-7h-8v-8h7V8H22c-1.6,0-3,1.3-3,2.9
		c0,0,0,0.1,0,0.1v12h-6v7h6v16.4C6.6,43.7-1.2,31.4,1.5,19C3.9,8.5,13.2,1,24,1z"/>
</g>
</svg>
