<?xml version="1.0" encoding="utf-8"?>
<!-- Generator: Adobe Illustrator 19.2.0, SVG Export Plug-In . SVG Version: 6.00 Build 0)  -->
<svg version="1.1" id="图层_1" xmlns="http://www.w3.org/2000/svg" xmlns:xlink="http://www.w3.org/1999/xlink" x="0px" y="0px"
	 viewBox="0 0 48 48" style="enable-background:new 0 0 48 48;" xml:space="preserve">
<style type="text/css">
	.st0{fill:#F1F2F2;}
	.st1{fill:#FA5C66;}
	.st2{fill:#FED049;}
	.st3{fill:none;stroke:#474C54;stroke-width:2;stroke-linecap:round;stroke-linejoin:round;}
</style>
<title></title>
<g id="_22-Yahoo">
	<g id="_Group_">
		<circle class="st0" cx="32" cy="15" r="3"/>
		<circle class="st0" cx="16" cy="15" r="3"/>
		<path class="st0" d="M35,26v3c0,0.3,0,0.7,0,1H13.1c0-0.3-0.1-0.7-0.1-1v-3H35z"/>
		<path class="st1" d="M31,30h4c-0.6,6-6,10.5-12,9.9c-5.2-0.5-9.4-4.7-9.9-9.9H31z"/>
		<path class="st2" d="M35,30c0-0.3,0-0.7,0-1v-3H13v3c0,0.3,0,0.7,0.1,1c0.6,6,6,10.5,12,9.9C30.3,39.4,34.4,35.2,35,30z M24,1
			c12.7,0,23,10.3,23,23S36.7,47,24,47S1,36.7,1,24S11.3,1,24,1z M35,15c0-1.7-1.3-3-3-3c-1.7,0-3,1.3-3,3s1.3,3,3,3
			C33.7,18,35,16.7,35,15z M19,15c0-1.7-1.3-3-3-3s-3,1.3-3,3s1.3,3,3,3S19,16.7,19,15z"/>
		<circle class="st3" cx="24" cy="24" r="23"/>
		<path class="st3" d="M35,29c0,0.3,0,0.7,0,1c-0.6,6-6,10.5-12,9.9c-5.2-0.5-9.4-4.7-9.9-9.9c0-0.3-0.1-0.7-0.1-1v-3h22V29"/>
		<circle class="st3" cx="16" cy="15" r="3"/>
		<circle class="st3" cx="32" cy="15" r="3"/>
		<line class="st3" x1="17" y1="30" x2="31" y2="30"/>
	</g>
</g>
</svg>
